<svg width="42" height="42" viewBox="0 0 42 42" fill="none" xmlns="http://www.w3.org/2000/svg">
<circle cx="21" cy="21" r="21" fill="white"/>
<circle cx="21" cy="21" r="21" fill="#3EBEB0" fill-opacity="0.2"/>
<path fill-rule="evenodd" clip-rule="evenodd" d="M31.8366 29.8646C29.2691 32.9994 25.3682 35 21 35C15.4152 35 10.5942 31.7299 8.34726 27H28C29.8147 27 31.3472 28.2085 31.8366 29.8646Z" fill="#3EBEB0"/>
<path fill-rule="evenodd" clip-rule="evenodd" d="M19.6527 27C18.4318 29.5702 16.4507 31.7094 14 33.127C11.5493 31.7094 9.56824 29.5702 8.34726 27L19.6527 27V27Z" fill="#019B8F"/>
<path fill-rule="evenodd" clip-rule="evenodd" d="M7.57976 17H26C28.2091 17 30 18.7909 30 21C30 23.2091 28.2091 25 26 25H7.57976C7.20256 23.7326 7 22.3899 7 21C7 19.6101 7.20256 18.2674 7.57976 17V17Z" fill="#07A5DE"/>
<path fill-rule="evenodd" clip-rule="evenodd" d="M20.4202 17C20.7974 18.2674 21 19.6101 21 21C21 22.3899 20.7974 23.7326 20.4202 25H7.57976C7.20256 23.7326 7 22.3899 7 21C7 19.6101 7.20256 18.2674 7.57976 17L20.4202 17V17Z" fill="#231F20"/>
<path fill-rule="evenodd" clip-rule="evenodd" d="M32.4765 12.9798C31.7878 14.1865 30.4889 15 29 15H8.34726C10.5942 10.2701 15.4152 7 21 7C25.7486 7 29.9451 9.36421 32.4765 12.9798Z" fill="#F0BF1A"/>
<path fill-rule="evenodd" clip-rule="evenodd" d="M19.6527 15H8.34726C9.56824 12.4297 11.5493 10.2906 14 8.87292C16.4507 10.2906 18.4318 12.4297 19.6527 15Z" fill="#D7A229"/>
</svg>
