<svg width="14" height="14" viewBox="0 0 14 14" fill="none" xmlns="http://www.w3.org/2000/svg">
<path d="M13.7739 11.0756C11.9979 7.52365 10.582 4.69177 8.80633 1.14053C8.48487 0.4661 7.79688 0 7 0C6.20312 0 5.51515 0.4661 5.19367 1.14053L0.22615 11.0756C0.08175 11.3521 0 11.6664 0 12C0 13.1046 0.895433 14 2 14H12C13.1046 14 14 13.1046 14 12C14 11.6664 13.9183 11.3521 13.7739 11.0756Z" fill="#FF4040"/>
<path d="M8 8C8 8.55228 7.55228 9 7 9C6.44772 9 6 8.55228 6 8V5C6 4.44772 6.44772 4 7 4C7.55228 4 8 4.44772 8 5V8ZM7 12C6.44772 12 6 11.5523 6 11C6 10.4477 6.44772 10 7 10C7.55228 10 8 10.4477 8 11C8 11.5523 7.55228 12 7 12Z" fill="white"/>
</svg>
