<svg width="24" height="24" viewBox="0 0 24 24" fill="none" xmlns="http://www.w3.org/2000/svg">
<path fill-rule="evenodd" clip-rule="evenodd" d="M10.2107 13.2036L10.2428 13.1715C10.8003 12.6141 11.3862 12.0281 11.9754 11.4389C12.386 11.0283 12.7982 10.6162 13.2034 10.2109C15.0028 11.8482 16.358 13.0812 19.1799 15.6488L19.182 15.6506L19.1824 15.6511H19.1824C19.6847 16.1083 19.9999 16.7674 19.9999 17.5002C19.9999 18.8809 18.8807 20.0002 17.4999 20.0002C16.7672 20.0002 16.1081 19.6849 15.6508 19.1827H15.6508L15.6504 19.1822L15.6485 19.1801C13.081 16.3582 11.8479 15.0031 10.2107 13.2036Z" fill="#BEBFC2"/>
<path fill-rule="evenodd" clip-rule="evenodd" d="M17 4H13C11.6631 4 10.4488 4.52467 9.55173 5.37932C9.55143 5.3796 9.55113 5.37987 9.55083 5.38017C9.55048 5.38048 9.55017 5.3808 9.54982 5.38112C7.6501 7.19037 6.34877 8.42975 5.41943 9.31483C5.77265 9.58925 6 10.0181 6 10.5C6 11.3284 5.32842 12 4.5 12C3.9918 12 3.5427 11.7472 3.27138 11.3606C2.92845 11.6872 2.67422 11.9293 2.31035 12.2759L2.31045 12.2761C2.11932 12.4583 2 12.7151 2 13C2 13.2761 2.11193 13.5261 2.2929 13.7071C3.7071 15.1213 3.87868 15.2929 5.2929 16.7071C5.47387 16.8881 5.72387 17 6 17C6.27613 17 6.52613 16.8881 6.7071 16.7071C6.90592 16.5083 7.23842 16.1758 7.6668 15.7474C7.26475 15.4783 7 15.0201 7 14.5C7 13.6716 7.67158 13 8.5 13C9.02012 13 9.47833 13.2647 9.74743 13.6668C9.90955 13.5047 10.0749 13.3393 10.2429 13.1713C10.8004 12.6139 11.3862 12.028 11.9755 11.4387C14.0167 9.39747 16.0973 7.31692 17.1713 6.24285C17.3979 6.01628 17.58 5.83425 17.7071 5.7071C17.8881 5.52613 18 5.27613 18 5C18 4.44772 17.5523 4 17 4Z" fill="#272833"/>
</svg>
