<svg width="42" height="42" viewBox="0 0 42 42" fill="none" xmlns="http://www.w3.org/2000/svg">
<circle cx="21" cy="21" r="21" fill="white"/>
<circle cx="21" cy="21" r="21" fill="#1AA0E8" fill-opacity="0.24"/>
<path fill-rule="evenodd" clip-rule="evenodd" d="M13.1406 8.97988C17.0829 3.45115 28.045 4.22071 33.9585 9.55705C45.1122 19.6053 30.6414 44.3656 17.0829 34.4616C16.7462 34.2203 16.4095 33.9798 16.0737 33.6921C11.7938 29.9902 8.33247 24.7492 11.9862 11.3839C12.2267 10.4701 12.6596 9.70135 13.1406 8.97988Z" fill="#1AA0E8"/>
<path fill-rule="evenodd" clip-rule="evenodd" d="M13.1406 8.97988C24.5347 4.31608 38.8139 15.5187 27.7075 27.971C25.1119 30.8552 21.0734 33.4035 17.0829 34.4616C14.1979 35.2304 11.3137 35.1823 9.05394 33.8836C3.6214 30.8552 2.27467 20.0863 6.4575 14.3171C8.38057 11.7206 10.6884 9.98993 13.1406 8.97988Z" fill="#0B63CE"/>
<path fill-rule="evenodd" clip-rule="evenodd" d="M27.7082 27.9709C38.8138 15.5186 24.5346 4.31681 13.1405 8.97979C12.6603 9.70125 12.2275 10.47 11.987 11.3838C8.33239 24.7492 11.7946 29.9901 16.0736 33.692C16.4095 33.9806 16.7461 34.2211 17.0828 34.4615C21.0733 33.4034 25.1118 30.8551 27.7082 27.9709Z" fill="#134194"/>
</svg>
