<svg width="14" height="14" viewBox="0 0 14 14" fill="none" xmlns="http://www.w3.org/2000/svg">
<circle cx="7" cy="7" r="7" fill="#00AE55"/>
<path d="M10 4C9.72387 4 9.47387 4.11193 9.29288 4.29288C8.12072 5.46507 7.11512 6.47067 6 7.58578C5.6089 7.19468 5.3937 6.97948 4.7071 6.29288C4.52613 6.11193 4.27613 6 4 6C3.44772 6 3 6.44772 3 7C3 7.27613 3.11193 7.52613 3.2929 7.70712L5.2929 9.70712C5.47387 9.88807 5.72387 10 6 10C6.27613 10 6.52613 9.88807 6.7071 9.70712C8.12132 8.29288 9.29288 7.12132 10.7071 5.70712C10.8881 5.52613 11 5.27613 11 5C11 4.44772 10.5523 4 10 4Z" fill="white"/>
</svg>
