<svg width="24" height="24" viewBox="0 0 24 24" fill="none" xmlns="http://www.w3.org/2000/svg">
<path d="M18 4H6C4.89543 4 4 4.89543 4 6V18C4 19.1046 4.89543 20 6 20H18C19.1046 20 20 19.1046 20 18V6C20 4.89543 19.1046 4 18 4Z" fill="#E9EAEB"/>
<path d="M15.25 11H16.75C16.8881 11 17 11.1119 17 11.25V15.75C17 15.8881 16.8881 16 16.75 16H15.25C15.1119 16 15 15.8881 15 15.75V11.25C15 11.1119 15.1119 11 15.25 11ZM16 10C15.4477 10 15 9.55228 15 9C15 8.44772 15.4477 8 16 8C16.5523 8 17 8.44772 17 9C17 9.55228 16.5523 10 16 10Z" fill="#7D7E85"/>
<path fill-rule="evenodd" clip-rule="evenodd" d="M11 14C10.4477 14 9.94772 13.7761 9.58578 13.4142C9.22387 13.0523 9 12.5523 9 12C9 11.4477 9.22387 10.9477 9.58578 10.5858C9.94772 10.2239 10.4477 10 11 10C11.5523 10 12.0523 10.2239 12.4142 10.5858L13.8284 9.17157C13.1046 8.44772 12.1046 8 11 8C9.89543 8 8.89543 8.44772 8.17158 9.17157C7.44772 9.89543 7 10.8954 7 12C7 13.1046 7.44772 14.1046 8.17158 14.8284C8.89543 15.5523 9.89543 16 11 16C12.1046 16 13.1046 15.5523 13.8284 14.8284L12.4142 13.4142C12.0523 13.7761 11.5523 14 11 14Z" fill="#272833"/>
</svg>
