<svg width="24" height="24" viewBox="0 0 24 24" fill="none" xmlns="http://www.w3.org/2000/svg">
<path d="M13 18V12.4142C13.3356 12.7498 13.7079 13.1221 14.2929 13.7071C14.4739 13.8881 14.7239 14 15 14C15.5523 14 16 13.5523 16 13C16 12.7238 15.8881 12.4738 15.7071 12.2929C14.2929 10.8787 14.1213 10.7071 12.7071 9.29288C12.5262 9.11193 12.2761 9 12 9C11.7239 9 11.4739 9.11193 11.2929 9.29288C9.87868 10.7071 9.70712 10.8787 8.2929 12.2929C8.11193 12.4738 8 12.7238 8 13C8 13.5523 8.44772 14 9 14C9.27615 14 9.52615 13.8881 9.70712 13.7071C10.2921 13.1221 10.6644 12.7498 11 12.4142V18H7C4.79087 18 3 16.2091 3 14C3 12.0368 4.4144 10.404 6.27973 10.0648C6.09895 9.57742 6 9.05028 6 8.5C6 6.01472 8.01473 4 10.5 4C12.4624 4 14.131 5.25622 14.7465 7.00822C14.8303 7.00297 14.9148 7 15 7C17.2092 7 19 8.79085 19 11C19 11.1114 18.9952 11.2216 18.9863 11.3306C20.1761 11.8895 21 13.0985 21 14.5C21 16.433 19.433 18 17.5 18H13Z" fill="#D4D4D6"/>
<path d="M15.7071 12.2929C14.2929 10.8787 14.1213 10.7071 12.7071 9.29288C12.5262 9.11193 12.2761 9 12 9C11.7239 9 11.4739 9.11193 11.2929 9.29288C9.87868 10.7071 9.70712 10.8787 8.2929 12.2929C8.11193 12.4738 8 12.7239 8 13C8 13.5523 8.44772 14 9 14C9.27615 14 9.52615 13.8881 9.70712 13.7071C10.2921 13.1222 10.6644 12.7498 11 12.4142V19C11 19.5523 11.4477 20 12 20C12.5523 20 13 19.5523 13 19V12.4142C13.3356 12.7498 13.7079 13.1222 14.2929 13.7071C14.4739 13.8881 14.7239 14 15 14C15.5523 14 16 13.5523 16 13C16 12.7239 15.8881 12.4738 15.7071 12.2929Z" fill="#272833"/>
</svg>
