<svg width="42" height="42" viewBox="0 0 42 42" fill="none" xmlns="http://www.w3.org/2000/svg">
<circle cx="21" cy="21" r="21" fill="white"/>
<circle cx="21" cy="21" r="21" fill="#1AA0E8" fill-opacity="0.24"/>
<path opacity="0.3" fill-rule="evenodd" clip-rule="evenodd" d="M27.4402 18.8983C26.8025 19.2665 25.987 19.0479 25.6188 18.4102C25.482 18.1733 25.4263 17.9117 25.443 17.6577H25.4429C25.443 17.6576 25.443 17.6574 25.443 17.6573C25.4432 17.6538 25.4434 17.6504 25.4436 17.6469C25.5491 16.0114 25.5825 15.4943 25.6426 14.5612C24.3335 13.6267 22.731 13.0769 21 13.0769C16.5817 13.0769 13 16.6586 13 21.0769C13 22.0584 13.1769 22.9985 13.5003 23.8673C13.7956 23.6968 14.1393 23.4983 14.5598 23.2555C15.1976 22.8873 16.013 23.1058 16.3812 23.7436C16.518 23.9805 16.5737 24.242 16.5571 24.496C16.5571 24.4962 16.557 24.4964 16.557 24.4965C16.5568 24.5 16.5566 24.5034 16.5564 24.5069C16.4509 26.1424 16.4175 26.6595 16.3574 27.5926C17.6665 28.5271 19.269 29.0769 21 29.0769C25.4183 29.0769 29 25.4952 29 21.0769C29 20.0954 28.8231 19.1553 28.4998 18.2865C28.2045 18.457 27.8608 18.6555 27.4402 18.8983Z" fill="#1AA0E8"/>
<path fill-rule="evenodd" clip-rule="evenodd" d="M21 10.4086V10.4102C21.7364 10.4102 22.3334 11.0072 22.3334 11.7436C22.3334 12.4799 21.7364 13.0769 21 13.0769C20.9909 13.0769 20.9819 13.0766 20.9729 13.0763C20.9692 13.0762 20.9656 13.076 20.9619 13.0759C19.6146 13.0811 18.2504 13.4268 17 14.1487C13.5671 16.1307 12.159 20.2728 13.501 23.8668L14.5599 23.2555C15.1976 22.8873 16.013 23.1058 16.3812 23.7436C16.518 23.9805 16.5737 24.242 16.5571 24.496L16.5571 24.4965L16.5564 24.5068L16.2477 29.2935C16.2196 29.723 15.9845 30.131 15.5838 30.3623C15.183 30.5937 14.7122 30.5933 14.3262 30.4029L10.0265 28.2769L10.0172 28.2723L10.0168 28.2721C9.78849 28.1595 9.58984 27.9805 9.45302 27.7436C9.08484 27.1058 9.30333 26.2904 9.94104 25.9222L11.1673 25.2142C9.10471 20.3293 10.956 14.559 15.6667 11.8393C17.3496 10.8677 19.1872 10.4069 21 10.4086Z" fill="#1AA0E8"/>
<path fill-rule="evenodd" clip-rule="evenodd" d="M25.443 17.6578L25.443 17.6573C25.4432 17.6538 25.4434 17.6504 25.4437 17.647C25.5977 15.2592 25.5979 15.2554 25.7524 12.8603C25.7805 12.4308 26.0155 12.0228 26.4163 11.7914C26.817 11.5601 27.2879 11.5605 27.6739 11.7509C29.8253 12.8147 29.8287 12.8164 31.9736 13.8769C31.9767 13.8784 31.9798 13.88 31.9829 13.8815L31.9833 13.8817C32.2116 13.9943 32.4102 14.1733 32.547 14.4102C32.9152 15.048 32.6967 15.8634 32.059 16.2316L27.4402 18.8983C26.8025 19.2665 25.987 19.048 25.6188 18.4102C25.482 18.1733 25.4264 17.9118 25.443 17.6578H25.443ZM30.8327 16.9396C32.8953 21.8245 31.0441 27.5948 26.3334 30.3145C24.6505 31.2861 22.8129 31.7469 21 31.7452V31.7436C20.2636 31.7436 19.6667 31.1466 19.6667 30.4103C19.6667 29.6739 20.2636 29.0769 21 29.0769C21.0128 29.0769 21.0254 29.0775 21.0381 29.0779C22.3854 29.0727 23.7496 28.727 25 28.0051C28.433 26.0231 29.8411 21.8811 28.499 18.287C29.4732 17.7245 29.9177 17.4679 30.8327 16.9396Z" fill="#0B63CE"/>
<circle cx="21" cy="20.9999" r="3" fill="#134194"/>
</svg>
