<svg width="42" height="42" viewBox="0 0 42 42" fill="none" xmlns="http://www.w3.org/2000/svg">
<circle cx="21" cy="21" r="21" fill="white"/>
<circle cx="21" cy="21" r="21" fill="#009900" fill-opacity="0.2"/>
<path fill-rule="evenodd" clip-rule="evenodd" d="M19 7.1547C20.2376 6.44017 21.7624 6.44017 23 7.1547L31.9904 12.3453C33.228 13.0598 33.9904 14.3803 33.9904 15.8094V26.1906C33.9904 27.6197 33.228 28.9402 31.9904 29.6547L23 34.8453C21.7624 35.5598 20.2376 35.5598 19 34.8453L10.0096 29.6547C8.77201 28.9402 8.00962 27.6197 8.00962 26.1906V15.8094C8.00962 14.3803 8.77201 13.0598 10.0096 12.3453L19 7.1547Z" fill="#009900"/>
<path fill-rule="evenodd" clip-rule="evenodd" d="M26.7778 28.2223C26.3313 28.2221 25.9473 28.0704 25.6945 27.8612L16.6667 18.8334V26.7778C16.7793 27.5507 16.1075 28.2223 15.2223 28.2223C14.4501 28.2223 13.7778 27.5506 13.7778 26.7778V15.2223C13.7778 14.6715 14.144 14.1247 14.8612 13.7778C15.2653 13.6596 15.9111 13.7881 16.3056 14.1389L25.3334 23.1667V15.2223C25.2208 14.4499 25.8926 13.7783 26.7778 13.7778C27.5506 13.7783 28.2223 14.4501 28.2223 15.2223V26.7778C28.2218 27.5503 27.5502 28.2218 26.7778 28.2223Z" fill="white"/>
</svg>
